ffmpeg started on 2026-03-26 at 18:53:38
Report written to "D:\Convert\FFMetrics\reports\ssim_report-6.txt"
Log level: 32
Command line:
ffmpeg -hide_banner -nostdin -r 25/1 -i "F:\\Convert\\files\\FBS NF 124 (1080P AVC)_HEVC(71).mkv" -r 25/1 -i "F:\\Convert\\files\\FBS NF 124 (1080P AVC).mp4" -lavfi "[0:v]settb=AVTB,setpts=PTS-STARTPTS,format=pix_fmts=yuv420p10le,fps=25/1,scale=1920:804:flags=lanczos:param0=3:out_range=limited:out_color_matrix=bt709:out_chroma_loc=left,setsar=1/1,setdar=(1920/804)*(1/1),colorspace=format=yuv420p10:range=tv:primaries=bt709:trc=bt709:space=bt709:fast=0[main];[1:v]settb=AVTB,setpts=PTS-STARTPTS,format=pix_fmts=yuv420p,fps=25/1,scale=1920:804:flags=lanczos:param0=3:out_range=limited:out_color_matrix=bt709:out_chroma_loc=left,setsar=1/1,setdar=(1920/804)*(1/1),colorspace=format=yuv420p:range=tv:primaries=bt709:trc=bt709:space=bt709:fast=0[ref];[main][ref]ssim=eof_action=endall:stats_file='D\\:/Convert/FFMetrics/logs/ssim_logfile-6.txt'" -f null -
Input #0, matroska,webm, from 'F:\Convert\files\FBS NF 124 (1080P AVC)_HEVC(71).mkv':
  Metadata:
    COMPATIBLE_BRANDS: mp42mp41
    MAJOR_BRAND     : mp42
    MINOR_VERSION   : 0
    ENCODER         : Lavf61.7.100
  Duration: 00:22:02.88, start: -0.021000, bitrate: 3951 kb/s
  Stream #0:0(eng): Video: hevc (Main 10), yuv420p10le(tv, bt709, progressive), 1920x804 [SAR 1:1 DAR 160:67], 25 fps, 25 tbr, 1k tbn (default)
      Metadata:
        HANDLER_NAME    : Mainconcept Video Media Handler
        VENDOR_ID       : [0][0][0][0]
        ENCODER         : Lavc61.19.100 libx265
        BPS             : 3757395
        DURATION        : 00:22:02.840000000
        NUMBER_OF_FRAMES: 33071
        NUMBER_OF_BYTES : 621304170
        _STATISTICS_WRITING_APP: mkvpropedit v94.0 ('Initiate') 64-bit
        _STATISTICS_WRITING_DATE_UTC: 2026-03-26 15:25:56
        _STATISTICS_TAGS: BPS DURATION NUMBER_OF_FRAMES NUMBER_OF_BYTES
  Stream #0:1(eng): Audio: aac (LC), 48000 Hz, stereo, fltp (default)
      Metadata:
        HANDLER_NAME    : #Mainconcept MP4 Sound Media Handler
        VENDOR_ID       : [0][0][0][0]
        ENCODER         : Lavc61.19.100 aac
        BPS             : 189986
        DURATION        : 00:22:02.858000000
        NUMBER_OF_FRAMES: 62010
        NUMBER_OF_BYTES : 31415714
        _STATISTICS_WRITING_APP: mkvpropedit v94.0 ('Initiate') 64-bit
        _STATISTICS_WRITING_DATE_UTC: 2026-03-26 15:25:56
        _STATISTICS_TAGS: BPS DURATION NUMBER_OF_FRAMES NUMBER_OF_BYTES
Input #1, mov,mp4,m4a,3gp,3g2,mj2, from 'F:\Convert\files\FBS NF 124 (1080P AVC).mp4':
  Metadata:
    major_brand     : mp42
    minor_version   : 0
    compatible_brands: mp42mp41
    creation_time   : 2024-12-09T14:39:16.000000Z
  Duration: 00:22:02.84, start: 0.000000, bitrate: 5643 kb/s
  Stream #1:0[0x1](eng): Video: h264 (Main) (avc1 / 0x31637661), yuv420p(tv, bt709, progressive), 1920x804, 5513 kb/s, 25 fps, 25 tbr, 25k tbn (default)
      Metadata:
        creation_time   : 2024-12-09T14:39:16.000000Z
        handler_name    : Mainconcept Video Media Handler
        vendor_id       : [0][0][0][0]
        encoder         : AVC Coding
  Stream #1:1[0x2](eng): Audio: aac (LC) (mp4a / 0x6134706D), 48000 Hz, stereo, fltp, 125 kb/s (default)
      Metadata:
        creation_time   : 2024-12-09T14:39:16.000000Z
        handler_name    : #Mainconcept MP4 Sound Media Handler
        vendor_id       : [0][0][0][0]
Stream mapping:
  Stream #0:0 (hevc) -> settb:default
  Stream #1:0 (h264) -> settb:default
  ssim:default -> Stream #0:0 (wrapped_avframe)
  Stream #0:1 -> #0:1 (aac (native) -> pcm_s16le (native))
Output #0, null, to 'pipe:':
  Metadata:
    COMPATIBLE_BRANDS: mp42mp41
    MAJOR_BRAND     : mp42
    MINOR_VERSION   : 0
    encoder         : Lavf61.7.100
  Stream #0:0: Video: wrapped_avframe, yuv420p10le(tv, bt709, progressive), 1920x804 [SAR 2881:2880 DAR 43:18], q=2-31, 200 kb/s, 25 fps, 25 tbn
      Metadata:
        encoder         : Lavc61.19.100 wrapped_avframe
  Stream #0:1(eng): Audio: pcm_s16le, 48000 Hz, stereo, s16, 1536 kb/s (default)
      Metadata:
        HANDLER_NAME    : #Mainconcept MP4 Sound Media Handler
        VENDOR_ID       : [0][0][0][0]
        _STATISTICS_TAGS: BPS DURATION NUMBER_OF_FRAMES NUMBER_OF_BYTES
        BPS             : 189986
        DURATION        : 00:22:02.858000000
        NUMBER_OF_FRAMES: 62010
        NUMBER_OF_BYTES : 31415714
        _STATISTICS_WRITING_APP: mkvpropedit v94.0 ('Initiate') 64-bit
        _STATISTICS_WRITING_DATE_UTC: 2026-03-26 15:25:56
        encoder         : Lavc61.19.100 pcm_s16le
frame=  181 fps=0.0 q=-0.0 size=N/A time=00:00:07.24 bitrate=N/A speed=14.1x    frame=  267 fps=260 q=-0.0 size=N/A time=00:00:10.68 bitrate=N/A speed=10.4x    frame=  416 fps=271 q=-0.0 size=N/A time=00:00:16.64 bitrate=N/A speed=10.8x    frame=  601 fps=291 q=-0.0 size=N/A time=00:00:24.04 bitrate=N/A speed=11.6x    frame=  803 fps=312 q=-0.0 size=N/A time=00:00:32.12 bitrate=N/A speed=12.5x    frame= 1060 fps=343 q=-0.0 size=N/A time=00:00:42.40 bitrate=N/A speed=13.7x    frame= 1314 fps=365 q=-0.0 size=N/A time=00:00:52.56 bitrate=N/A speed=14.6x    frame= 1445 fps=350 q=-0.0 size=N/A time=00:00:57.80 bitrate=N/A speed=  14x    frame= 1612 fps=348 q=-0.0 size=N/A time=00:01:04.48 bitrate=N/A speed=13.9x    frame= 1728 fps=335 q=-0.0 size=N/A time=00:01:09.12 bitrate=N/A speed=13.4x    frame= 1908 fps=337 q=-0.0 size=N/A time=00:01:16.32 bitrate=N/A speed=13.5x    frame= 2121 fps=343 q=-0.0 size=N/A time=00:01:24.84 bitrate=N/A speed=13.7x    frame= 2303 fps=344 q=-0.0 size=N/A time=00:01:32.12 bitrate=N/A speed=13.7x    frame= 2487 fps=345 q=-0.0 size=N/A time=00:01:39.48 bitrate=N/A speed=13.8x    frame= 2628 fps=340 q=-0.0 size=N/A time=00:01:45.12 bitrate=N/A speed=13.6x    frame= 2805 fps=340 q=-0.0 size=N/A time=00:01:52.20 bitrate=N/A speed=13.6x    frame= 2961 fps=338 q=-0.0 size=N/A time=00:01:58.44 bitrate=N/A speed=13.5x    frame= 3099 fps=334 q=-0.0 size=N/A time=00:02:03.96 bitrate=N/A speed=13.4x    frame= 3231 fps=330 q=-0.0 size=N/A time=00:02:09.24 bitrate=N/A speed=13.2x    frame= 3434 fps=333 q=-0.0 size=N/A time=00:02:17.36 bitrate=N/A speed=13.3x    frame= 3666 fps=338 q=-0.0 size=N/A time=00:02:26.64 bitrate=N/A speed=13.5x    frame= 3801 fps=335 q=-0.0 size=N/A time=00:02:32.04 bitrate=N/A speed=13.4x    frame= 3924 fps=330 q=-0.0 size=N/A time=00:02:36.96 bitrate=N/A speed=13.2x    frame= 4053 fps=327 q=-0.0 size=N/A time=00:02:42.12 bitrate=N/A speed=13.1x    frame= 4185 fps=324 q=-0.0 size=N/A time=00:02:47.40 bitrate=N/A speed=  13x    frame= 4314 fps=321 q=-0.0 size=N/A time=00:02:52.56 bitrate=N/A speed=12.9x    frame= 4451 fps=319 q=-0.0 size=N/A time=00:02:58.04 bitrate=N/A speed=12.8x    frame= 4572 fps=316 q=-0.0 size=N/A time=00:03:02.88 bitrate=N/A speed=12.6x    frame= 4704 fps=314 q=-0.0 size=N/A time=00:03:08.16 bitrate=N/A speed=12.6x    frame= 4821 fps=311 q=-0.0 size=N/A time=00:03:12.84 bitrate=N/A speed=12.5x    frame= 5028 fps=314 q=-0.0 size=N/A time=00:03:21.12 bitrate=N/A speed=12.6x    frame= 5238 fps=317 q=-0.0 size=N/A time=00:03:29.52 bitrate=N/A speed=12.7x    frame= 5380 fps=316 q=-0.0 size=N/A time=00:03:35.20 bitrate=N/A speed=12.6x    frame= 5525 fps=315 q=-0.0 size=N/A time=00:03:41.00 bitrate=N/A speed=12.6x    frame= 5662 fps=313 q=-0.0 size=N/A time=00:03:46.48 bitrate=N/A speed=12.5x    frame= 5758 fps=310 q=-0.0 size=N/A time=00:03:50.32 bitrate=N/A speed=12.4x    frame= 5931 fps=311 q=-0.0 size=N/A time=00:03:57.24 bitrate=N/A speed=12.4x    frame= 6100 fps=311 q=-0.0 size=N/A time=00:04:04.00 bitrate=N/A speed=12.4x    frame= 6278 fps=312 q=-0.0 size=N/A time=00:04:11.12 bitrate=N/A speed=12.5x    frame= 6481 fps=314 q=-0.0 size=N/A time=00:04:19.24 bitrate=N/A speed=12.6x    frame= 6648 fps=314 q=-0.0 size=N/A time=00:04:25.92 bitrate=N/A speed=12.6x    frame= 6811 fps=314 q=-0.0 size=N/A time=00:04:32.44 bitrate=N/A speed=12.6x    frame= 6987 fps=315 q=-0.0 size=N/A time=00:04:39.48 bitrate=N/A speed=12.6x    frame= 7156 fps=315 q=-0.0 size=N/A time=00:04:46.24 bitrate=N/A speed=12.6x    frame= 7305 fps=314 q=-0.0 size=N/A time=00:04:52.20 bitrate=N/A speed=12.6x    frame= 7499 fps=316 q=-0.0 size=N/A time=00:04:59.96 bitrate=N/A speed=12.6x    frame= 7717 fps=318 q=-0.0 size=N/A time=00:05:08.68 bitrate=N/A speed=12.7x    frame= 7895 fps=319 q=-0.0 size=N/A time=00:05:15.80 bitrate=N/A speed=12.7x    frame= 8070 fps=319 q=-0.0 size=N/A time=00:05:22.80 bitrate=N/A speed=12.8x    frame= 8182 fps=317 q=-0.0 size=N/A time=00:05:27.28 bitrate=N/A speed=12.7x    frame= 8350 fps=317 q=-0.0 size=N/A time=00:05:34.00 bitrate=N/A speed=12.7x    frame= 8532 fps=318 q=-0.0 size=N/A time=00:05:41.28 bitrate=N/A speed=12.7x    frame= 8682 fps=317 q=-0.0 size=N/A time=00:05:47.28 bitrate=N/A speed=12.7x    frame= 8816 fps=316 q=-0.0 size=N/A time=00:05:52.64 bitrate=N/A speed=12.7x    frame= 9022 fps=318 q=-0.0 size=N/A time=00:06:00.88 bitrate=N/A speed=12.7x    frame= 9213 fps=319 q=-0.0 size=N/A time=00:06:08.52 bitrate=N/A speed=12.7x    frame= 9396 fps=319 q=-0.0 size=N/A time=00:06:15.84 bitrate=N/A speed=12.8x    frame= 9556 fps=319 q=-0.0 size=N/A time=00:06:22.24 bitrate=N/A speed=12.8x    frame= 9767 fps=321 q=-0.0 size=N/A time=00:06:30.68 bitrate=N/A speed=12.8x    frame= 9957 fps=322 q=-0.0 size=N/A time=00:06:38.28 bitrate=N/A speed=12.9x    frame=10138 fps=322 q=-0.0 size=N/A time=00:06:45.52 bitrate=N/A speed=12.9x    frame=10284 fps=321 q=-0.0 size=N/A time=00:06:51.36 bitrate=N/A speed=12.9x    frame=10487 fps=323 q=-0.0 size=N/A time=00:06:59.48 bitrate=N/A speed=12.9x    frame=10656 fps=323 q=-0.0 size=N/A time=00:07:06.24 bitrate=N/A speed=12.9x    frame=10826 fps=323 q=-0.0 size=N/A time=00:07:13.04 bitrate=N/A speed=12.9x    frame=11011 fps=323 q=-0.0 size=N/A time=00:07:20.44 bitrate=N/A speed=12.9x    frame=11202 fps=324 q=-0.0 size=N/A time=00:07:28.08 bitrate=N/A speed=  13x    frame=11351 fps=323 q=-0.0 size=N/A time=00:07:34.04 bitrate=N/A speed=12.9x    frame=11505 fps=323 q=-0.0 size=N/A time=00:07:40.20 bitrate=N/A speed=12.9x    frame=11683 fps=323 q=-0.0 size=N/A time=00:07:47.32 bitrate=N/A speed=12.9x    frame=11832 fps=323 q=-0.0 size=N/A time=00:07:53.28 bitrate=N/A speed=12.9x    frame=12014 fps=323 q=-0.0 size=N/A time=00:08:00.56 bitrate=N/A speed=12.9x    frame=12168 fps=323 q=-0.0 size=N/A time=00:08:06.72 bitrate=N/A speed=12.9x    frame=12346 fps=323 q=-0.0 size=N/A time=00:08:13.84 bitrate=N/A speed=12.9x    frame=12537 fps=324 q=-0.0 size=N/A time=00:08:21.48 bitrate=N/A speed=  13x    frame=12716 fps=324 q=-0.0 size=N/A time=00:08:28.64 bitrate=N/A speed=  13x    frame=12872 fps=324 q=-0.0 size=N/A time=00:08:34.88 bitrate=N/A speed=  13x    frame=13077 fps=325 q=-0.0 size=N/A time=00:08:43.08 bitrate=N/A speed=  13x    frame=13263 fps=325 q=-0.0 size=N/A time=00:08:50.52 bitrate=N/A speed=  13x    frame=13441 fps=325 q=-0.0 size=N/A time=00:08:57.64 bitrate=N/A speed=  13x    frame=13609 fps=326 q=-0.0 size=N/A time=00:09:04.36 bitrate=N/A speed=  13x    frame=13787 fps=326 q=-0.0 size=N/A time=00:09:11.48 bitrate=N/A speed=  13x    frame=13978 fps=326 q=-0.0 size=N/A time=00:09:19.12 bitrate=N/A speed=  13x    frame=14171 fps=327 q=-0.0 size=N/A time=00:09:26.84 bitrate=N/A speed=13.1x    frame=14330 fps=327 q=-0.0 size=N/A time=00:09:33.20 bitrate=N/A speed=13.1x    frame=14488 fps=326 q=-0.0 size=N/A time=00:09:39.52 bitrate=N/A speed=13.1x    frame=14656 fps=326 q=-0.0 size=N/A time=00:09:46.24 bitrate=N/A speed=13.1x    frame=14848 fps=327 q=-0.0 size=N/A time=00:09:53.92 bitrate=N/A speed=13.1x    frame=15026 fps=327 q=-0.0 size=N/A time=00:10:01.04 bitrate=N/A speed=13.1x    frame=15248 fps=328 q=-0.0 size=N/A time=00:10:09.92 bitrate=N/A speed=13.1x    frame=15436 fps=329 q=-0.0 size=N/A time=00:10:17.44 bitrate=N/A speed=13.1x    frame=15607 fps=329 q=-0.0 size=N/A time=00:10:24.28 bitrate=N/A speed=13.1x    frame=15822 fps=330 q=-0.0 size=N/A time=00:10:32.88 bitrate=N/A speed=13.2x    frame=16013 fps=330 q=-0.0 size=N/A time=00:10:40.52 bitrate=N/A speed=13.2x    frame=16234 fps=331 q=-0.0 size=N/A time=00:10:49.36 bitrate=N/A speed=13.2x    frame=16459 fps=332 q=-0.0 size=N/A time=00:10:58.36 bitrate=N/A speed=13.3x    frame=16663 fps=333 q=-0.0 size=N/A time=00:11:06.52 bitrate=N/A speed=13.3x    frame=16829 fps=333 q=-0.0 size=N/A time=00:11:13.16 bitrate=N/A speed=13.3x    frame=17001 fps=333 q=-0.0 size=N/A time=00:11:20.04 bitrate=N/A speed=13.3x    frame=17210 fps=333 q=-0.0 size=N/A time=00:11:28.40 bitrate=N/A speed=13.3x    frame=17393 fps=334 q=-0.0 size=N/A time=00:11:35.72 bitrate=N/A speed=13.3x    frame=17559 fps=334 q=-0.0 size=N/A time=00:11:42.36 bitrate=N/A speed=13.3x    frame=17739 fps=334 q=-0.0 size=N/A time=00:11:49.56 bitrate=N/A speed=13.3x    frame=17926 fps=334 q=-0.0 size=N/A time=00:11:57.04 bitrate=N/A speed=13.4x    frame=18086 fps=334 q=-0.0 size=N/A time=00:12:03.44 bitrate=N/A speed=13.3x    frame=18219 fps=333 q=-0.0 size=N/A time=00:12:08.76 bitrate=N/A speed=13.3x    frame=18428 fps=334 q=-0.0 size=N/A time=00:12:17.12 bitrate=N/A speed=13.3x    frame=18591 fps=333 q=-0.0 size=N/A time=00:12:23.64 bitrate=N/A speed=13.3x    frame=18782 fps=334 q=-0.0 size=N/A time=00:12:31.28 bitrate=N/A speed=13.4x    frame=18974 fps=334 q=-0.0 size=N/A time=00:12:38.96 bitrate=N/A speed=13.4x    frame=19111 fps=334 q=-0.0 size=N/A time=00:12:44.44 bitrate=N/A speed=13.3x    frame=19311 fps=334 q=-0.0 size=N/A time=00:12:52.44 bitrate=N/A speed=13.4x    frame=19533 fps=335 q=-0.0 size=N/A time=00:13:01.32 bitrate=N/A speed=13.4x    frame=19731 fps=335 q=-0.0 size=N/A time=00:13:09.24 bitrate=N/A speed=13.4x    frame=19948 fps=336 q=-0.0 size=N/A time=00:13:17.92 bitrate=N/A speed=13.4x    frame=20124 fps=336 q=-0.0 size=N/A time=00:13:24.96 bitrate=N/A speed=13.4x    frame=20334 fps=337 q=-0.0 size=N/A time=00:13:33.36 bitrate=N/A speed=13.5x    frame=20523 fps=337 q=-0.0 size=N/A time=00:13:40.92 bitrate=N/A speed=13.5x    frame=20699 fps=337 q=-0.0 size=N/A time=00:13:47.96 bitrate=N/A speed=13.5x    frame=20913 fps=338 q=-0.0 size=N/A time=00:13:56.52 bitrate=N/A speed=13.5x    frame=21122 fps=338 q=-0.0 size=N/A time=00:14:04.88 bitrate=N/A speed=13.5x    frame=21297 fps=338 q=-0.0 size=N/A time=00:14:11.88 bitrate=N/A speed=13.5x    frame=21472 fps=338 q=-0.0 size=N/A time=00:14:18.88 bitrate=N/A speed=13.5x    frame=21668 fps=338 q=-0.0 size=N/A time=00:14:26.72 bitrate=N/A speed=13.5x    frame=21875 fps=339 q=-0.0 size=N/A time=00:14:35.00 bitrate=N/A speed=13.6x    frame=22068 fps=339 q=-0.0 size=N/A time=00:14:42.72 bitrate=N/A speed=13.6x    frame=22275 fps=340 q=-0.0 size=N/A time=00:14:51.00 bitrate=N/A speed=13.6x    frame=22460 fps=340 q=-0.0 size=N/A time=00:14:58.40 bitrate=N/A speed=13.6x    frame=22664 fps=340 q=-0.0 size=N/A time=00:15:06.56 bitrate=N/A speed=13.6x    frame=22858 fps=341 q=-0.0 size=N/A time=00:15:14.32 bitrate=N/A speed=13.6x    frame=23052 fps=341 q=-0.0 size=N/A time=00:15:22.08 bitrate=N/A speed=13.6x    frame=23220 fps=341 q=-0.0 size=N/A time=00:15:28.80 bitrate=N/A speed=13.6x    frame=23361 fps=340 q=-0.0 size=N/A time=00:15:34.44 bitrate=N/A speed=13.6x    frame=23514 fps=340 q=-0.0 size=N/A time=00:15:40.56 bitrate=N/A speed=13.6x    frame=23686 fps=340 q=-0.0 size=N/A time=00:15:47.44 bitrate=N/A speed=13.6x    frame=23871 fps=340 q=-0.0 size=N/A time=00:15:54.84 bitrate=N/A speed=13.6x    frame=24060 fps=340 q=-0.0 size=N/A time=00:16:02.40 bitrate=N/A speed=13.6x    frame=24213 fps=340 q=-0.0 size=N/A time=00:16:08.52 bitrate=N/A speed=13.6x    frame=24412 fps=340 q=-0.0 size=N/A time=00:16:16.48 bitrate=N/A speed=13.6x    frame=24607 fps=340 q=-0.0 size=N/A time=00:16:24.28 bitrate=N/A speed=13.6x    frame=24789 fps=341 q=-0.0 size=N/A time=00:16:31.56 bitrate=N/A speed=13.6x    frame=24969 fps=341 q=-0.0 size=N/A time=00:16:38.76 bitrate=N/A speed=13.6x    frame=25170 fps=341 q=-0.0 size=N/A time=00:16:46.80 bitrate=N/A speed=13.6x    frame=25379 fps=341 q=-0.0 size=N/A time=00:16:55.16 bitrate=N/A speed=13.7x    frame=25531 fps=341 q=-0.0 size=N/A time=00:17:01.24 bitrate=N/A speed=13.6x    frame=25707 fps=341 q=-0.0 size=N/A time=00:17:08.28 bitrate=N/A speed=13.6x    frame=25874 fps=341 q=-0.0 size=N/A time=00:17:14.96 bitrate=N/A speed=13.6x    frame=26045 fps=341 q=-0.0 size=N/A time=00:17:21.80 bitrate=N/A speed=13.6x    frame=26257 fps=341 q=-0.0 size=N/A time=00:17:30.28 bitrate=N/A speed=13.7x    frame=26435 fps=341 q=-0.0 size=N/A time=00:17:37.40 bitrate=N/A speed=13.7x    frame=26598 fps=341 q=-0.0 size=N/A time=00:17:43.92 bitrate=N/A speed=13.6x    frame=26751 fps=341 q=-0.0 size=N/A time=00:17:50.04 bitrate=N/A speed=13.6x    frame=26946 fps=341 q=-0.0 size=N/A time=00:17:57.84 bitrate=N/A speed=13.6x    frame=27145 fps=341 q=-0.0 size=N/A time=00:18:05.80 bitrate=N/A speed=13.7x    frame=27347 fps=342 q=-0.0 size=N/A time=00:18:13.88 bitrate=N/A speed=13.7x    frame=27562 fps=342 q=-0.0 size=N/A time=00:18:22.48 bitrate=N/A speed=13.7x    frame=27750 fps=342 q=-0.0 size=N/A time=00:18:30.00 bitrate=N/A speed=13.7x    frame=27928 fps=342 q=-0.0 size=N/A time=00:18:37.12 bitrate=N/A speed=13.7x    frame=28104 fps=342 q=-0.0 size=N/A time=00:18:44.16 bitrate=N/A speed=13.7x    frame=28278 fps=342 q=-0.0 size=N/A time=00:18:51.12 bitrate=N/A speed=13.7x    frame=28441 fps=342 q=-0.0 size=N/A time=00:18:57.64 bitrate=N/A speed=13.7x    frame=28604 fps=342 q=-0.0 size=N/A time=00:19:04.16 bitrate=N/A speed=13.7x    frame=28798 fps=342 q=-0.0 size=N/A time=00:19:11.92 bitrate=N/A speed=13.7x    frame=29004 fps=343 q=-0.0 size=N/A time=00:19:20.16 bitrate=N/A speed=13.7x    frame=29185 fps=343 q=-0.0 size=N/A time=00:19:27.40 bitrate=N/A speed=13.7x    frame=29389 fps=343 q=-0.0 size=N/A time=00:19:35.56 bitrate=N/A speed=13.7x    frame=29590 fps=343 q=-0.0 size=N/A time=00:19:43.60 bitrate=N/A speed=13.7x    frame=29798 fps=344 q=-0.0 size=N/A time=00:19:51.92 bitrate=N/A speed=13.7x    frame=29999 fps=344 q=-0.0 size=N/A time=00:19:59.96 bitrate=N/A speed=13.8x    frame=30190 fps=344 q=-0.0 size=N/A time=00:20:07.60 bitrate=N/A speed=13.8x    frame=30377 fps=344 q=-0.0 size=N/A time=00:20:15.08 bitrate=N/A speed=13.8x    frame=30539 fps=344 q=-0.0 size=N/A time=00:20:21.56 bitrate=N/A speed=13.8x    frame=30742 fps=344 q=-0.0 size=N/A time=00:20:29.68 bitrate=N/A speed=13.8x    frame=30938 fps=344 q=-0.0 size=N/A time=00:20:37.52 bitrate=N/A speed=13.8x    frame=31128 fps=345 q=-0.0 size=N/A time=00:20:45.12 bitrate=N/A speed=13.8x    frame=31315 fps=345 q=-0.0 size=N/A time=00:20:52.60 bitrate=N/A speed=13.8x    frame=31494 fps=345 q=-0.0 size=N/A time=00:20:59.76 bitrate=N/A speed=13.8x    frame=31709 fps=345 q=-0.0 size=N/A time=00:21:08.36 bitrate=N/A speed=13.8x    frame=31923 fps=345 q=-0.0 size=N/A time=00:21:16.92 bitrate=N/A speed=13.8x    frame=32119 fps=346 q=-0.0 size=N/A time=00:21:24.76 bitrate=N/A speed=13.8x    frame=32254 fps=345 q=-0.0 size=N/A time=00:21:30.16 bitrate=N/A speed=13.8x    frame=32431 fps=345 q=-0.0 size=N/A time=00:21:37.24 bitrate=N/A speed=13.8x    frame=32639 fps=346 q=-0.0 size=N/A time=00:21:45.56 bitrate=N/A speed=13.8x    frame=32897 fps=346 q=-0.0 size=N/A time=00:21:55.88 bitrate=N/A speed=13.9x    [Parsed_ssim_16 @ 0000024a12066c80] SSIM Y:0.989713 (19.877249) U:0.990426 (20.189105) V:0.991536 (20.724035) All:0.990136 (20.059394)
[out#0/null @ 0000024a07e7fb00] video:14210KiB audio:248040KiB subtitle:0KiB other streams:0KiB global headers:0KiB muxing overhead: unknown
frame=33071 fps=347 q=-0.0 Lsize=N/A time=00:22:02.84 bitrate=N/A speed=13.9x    
